# xmcd
#
# Track frame offsets:
#	150
#	874
#	19029
#	36543
#	47354
#	69397
#	85739
#	96135
#	107010
#	121978
#	135704
#	137961
#	147063
#	173860
#	191922
#	211175
#	227158
#	246123
#	257338
#	274183
#	290127
#	301889
#	320264
#	334325
#
# Disc length: 4685 seconds
#
# Revision: 1
# Processed by: cddbd v1.5.2PL0 Copyright (c) Steve Scherf et al.
# Submitted via: audiograbber 1.83.01
#
DISCID=54124b18
DTITLE=Country Hotdisc - Country Hotdisc 059A
DYEAR=1900
DGENRE=
TTITLE0=Intro - Intro
TTITLE1=Is There More  - Kenny Butterhill
TTITLE2=There Goes - Henry Smith Jr
TTITLE3=He Ain´t Me  - Mike Bella
TTITLE4=Highway Heroes  - Hermann Lammers Meyer
TTITLE5=Words Can´t Wait  - Dennis Maker Peace
TTITLE6=A Man Named Johnny Cash - Dave Vernon
TTITLE7=Rock Me Baby  - Rockitmen
TTITLE8=Leaving Town  - Eric Toomen
TTITLE9=A House You Can´t Call Home - Soulscript
TTITLE10=Talking Bout The Following Cut  - Lane Brody
TTITLE11=All Shall Be Well  - Lane Brody With Eddie Bayers
TTITLE12=Radio Interview  - Lynne Taylor Donovan
TTITLE13=Radio Interview  - Lynne Taylor Donovan
TTITLE14=Radio Interview  - Lynne Taylor Donovan
TTITLE15=Radio Interview  - Lynne Taylor Donovan
TTITLE16=Let It Be  - Collin Ray
TTITLE17=I Feel Fine - Sweethearts Of The Rodeo
TTITLE18=Get Back  - Steve Wainer
TTITLE19=Come Together - Delbert Mcclinton
TTITLE20=I Don´t Want To Spoil The Party  - Rosanne Cash
TTITLE21=Running With The Wind - Eddie Rabbitt
TTITLE22=God Must Be A Cowboy  - Dan Seals
TTITLE23=Old Coyote Town  - Don Williams
EXTD=
EXTT0=
EXTT1=
EXTT2=
EXTT3=
EXTT4=
EXTT5=
EXTT6=
EXTT7=
EXTT8=
EXTT9=
EXTT10=
EXTT11=
EXTT12=
EXTT13=
EXTT14=
EXTT15=
EXTT16=
EXTT17=
EXTT18=
EXTT19=
EXTT20=
EXTT21=
EXTT22=
EXTT23=
PLAYORDER=
